<svg width="427" height="367" viewBox="0 0 427 367" fill="none" xmlns="http://www.w3.org/2000/svg">
<path d="M337.425 278.364C320.537 301.248 302.025 319.292 280.151 331.621C258.288 343.943 232.987 350.601 202.451 350.601C151.363 350.601 116.259 330.835 99.9279 299.612C83.5695 268.337 85.8019 225.112 110.414 177.726C117.377 164.321 114.902 149.174 108.304 133.773C101.823 118.647 91.2181 102.938 81.0495 87.8756C80.8615 87.5972 80.6737 87.319 80.4861 87.0411C70.09 71.6397 60.2732 56.9838 55.5131 44.0708C53.1399 37.6326 52.0755 31.7559 52.7506 26.5227C53.4191 21.3404 55.8058 16.6821 60.5543 12.6396C68.3134 6.03433 80.4682 2.71749 95.3087 1.78271C110.104 0.850762 127.327 2.29971 144.983 4.99646C177.678 9.98998 211.634 19.2237 234.054 25.3201C235.849 25.8082 237.57 26.2762 239.21 26.7203C253.911 30.6999 266.121 33.7547 276.32 36.3066C282.158 37.7675 287.338 39.0635 291.95 40.2738C304.696 43.6194 313.147 46.3231 319.65 50.0774C326.085 53.7921 330.688 58.5822 335.604 66.2707C340.085 73.2802 344.772 82.6076 351.318 95.6368C352.007 97.0078 352.716 98.4199 353.448 99.8745C356.692 106.32 362.817 114.732 370.077 124.099C373.179 128.101 376.481 132.27 379.876 136.555C384.491 142.381 389.276 148.422 393.958 154.55C402.057 165.151 409.721 175.857 415.356 185.765C421.019 195.723 424.506 204.661 424.506 211.78C424.506 221.675 420.683 228.747 414.555 234.342C408.358 240 399.795 244.156 390.315 248.06C387.388 249.265 384.368 250.448 381.315 251.645C374.575 254.285 367.674 256.989 361.262 260.132C351.91 264.716 343.344 270.343 337.425 278.364Z" fill="white" stroke="white" stroke-width="3"/>
<path d="M227.859 308.111C214.425 326.307 199.71 340.639 182.334 350.428C164.97 360.211 144.87 365.5 120.594 365.5C79.9795 365.5 52.1431 349.798 39.2021 325.068C26.2341 300.286 27.9791 265.982 47.5551 228.309C53.1643 217.515 51.1526 205.346 45.8837 193.053C40.7102 180.983 32.2492 168.456 24.1564 156.474C24.0037 156.248 23.8512 156.022 23.6988 155.796C15.4111 143.524 7.61661 131.888 3.84069 121.65C1.95951 116.549 1.12759 111.923 1.65662 107.824C2.17907 103.776 4.04099 100.135 7.76741 96.9641C13.872 91.7695 23.4725 89.1351 35.2717 88.3922C47.0259 87.6522 60.7199 88.8025 74.7736 90.948C100.797 94.9209 127.829 102.268 145.688 107.122C147.117 107.511 148.487 107.883 149.794 108.237C161.504 111.405 171.239 113.84 179.366 115.873C184.015 117.035 188.138 118.067 191.804 119.028C201.958 121.692 208.653 123.837 213.794 126.803C218.865 129.729 222.499 133.503 226.396 139.595C229.957 145.162 233.682 152.574 238.901 162.955C239.448 164.044 240.012 165.166 240.594 166.323C243.193 171.485 248.091 178.204 253.871 185.659C256.347 188.853 258.979 192.173 261.682 195.585C265.356 200.22 269.162 205.022 272.891 209.902C279.34 218.339 285.435 226.849 289.913 234.72C294.419 242.639 297.161 249.697 297.161 255.281C297.161 263.064 294.158 268.615 289.334 273.018C284.441 277.484 277.664 280.776 270.116 283.883C267.795 284.838 265.395 285.778 262.966 286.729C257.592 288.834 252.076 290.994 246.957 293.502C239.489 297.161 232.616 301.668 227.859 308.111Z" stroke="white" stroke-width="3"/>
</svg>
