<svg width="88" height="75" viewBox="0 0 88 75" fill="none" xmlns="http://www.w3.org/2000/svg">
<path d="M69.6603 56.7335C66.225 61.392 62.4665 65.0553 58.0329 67.556C53.6032 70.0545 48.4735 71.407 42.2718 71.407C31.8962 71.407 24.8116 67.393 21.5214 61.098C18.2221 54.7856 18.6567 46.0279 23.6616 36.3849C25.1224 33.5704 24.592 30.4083 23.2371 27.2434C21.9072 24.1371 19.7342 20.916 17.6633 17.8463C17.6231 17.7867 17.5829 17.7271 17.5428 17.6676C15.4169 14.5159 13.4292 11.5439 12.4676 8.93339C11.9891 7.63427 11.7819 6.4674 11.9142 5.44129C12.0443 4.43212 12.5067 3.52399 13.4402 2.72865C14.9756 1.42069 17.4044 0.74738 20.4191 0.557352C23.4188 0.368266 26.9181 0.662081 30.5148 1.21183C37.1753 2.22985 44.0948 4.11277 48.671 5.35806C49.037 5.45764 49.3879 5.55315 49.7226 5.6438C52.723 6.45663 55.2208 7.08208 57.3043 7.60378C58.4949 7.90191 59.5502 8.16616 60.4867 8.41214C63.0887 9.09556 64.7899 9.64239 66.0919 10.3946C67.3711 11.1336 68.2898 12.0863 69.2812 13.6382C70.1901 15.0607 71.1417 16.956 72.4799 19.6213C72.6199 19.9002 72.7642 20.1875 72.913 20.4836C73.5847 21.8192 74.8463 23.5512 76.3264 25.4623C76.9627 26.284 77.6374 27.1363 78.3301 28.0113C79.2701 29.1988 80.2433 30.4282 81.199 31.68C82.8504 33.8433 84.4081 36.0212 85.5515 38.0331C86.7041 40.0613 87.3933 41.8496 87.3933 43.2503C87.3933 45.2114 86.6402 46.6054 85.4256 47.7152C84.1883 48.8458 82.4686 49.6839 80.5358 50.4804C79.9452 50.7239 79.3327 50.964 78.7116 51.2076C77.3324 51.7483 75.9113 52.3056 74.5954 52.951C72.6752 53.8929 70.8951 55.059 69.6603 56.7335Z" stroke="white"/>
<path d="M47.3013 62.8085C44.5708 66.5095 41.5873 69.4148 38.0717 71.3968C34.5601 73.3765 30.4917 74.4498 25.5675 74.4498C17.3293 74.4498 11.7278 71.2656 9.12949 66.2966C6.5221 61.3103 6.85727 54.3744 10.8344 46.7151C12.0189 44.4337 11.5831 41.8799 10.4994 39.3497C9.43632 36.8675 7.70082 34.2961 6.05349 31.8553C6.02049 31.8064 5.98751 31.7576 5.95458 31.7088C4.25897 29.1961 2.684 26.841 1.92326 24.7767C1.54514 23.7506 1.38543 22.8392 1.48789 22.0447C1.58817 21.2672 1.94345 20.5669 2.66843 19.9496C3.8661 18.9297 5.7737 18.3958 8.16773 18.2449C10.5468 18.095 13.326 18.3279 16.1875 18.765C21.4867 19.5746 26.9929 21.0723 30.6385 22.0639C30.9298 22.1431 31.2093 22.2191 31.4757 22.2913C33.8658 22.9385 35.8586 23.4373 37.5193 23.8529C38.4672 24.0902 39.3069 24.3003 40.0504 24.4955C42.1233 25.0398 43.4661 25.4723 44.4901 26.0636C45.4911 26.6417 46.212 27.3868 46.9956 28.6127C47.7164 29.7406 48.4719 31.2445 49.539 33.3688C49.6502 33.5903 49.7649 33.8185 49.8832 34.0538C50.4233 35.1273 51.4344 36.5137 52.6125 38.0343C53.121 38.6907 53.6587 39.3696 54.2104 40.0662C54.9583 41.0105 55.7318 41.9872 56.4932 42.9841C57.8079 44.7055 59.0452 46.4351 59.9524 48.0307C60.869 49.6428 61.4062 51.0469 61.4062 52.1341C61.4062 53.6639 60.8206 54.7473 59.8721 55.6136C58.9007 56.5008 57.5457 57.1625 56.0071 57.7963C55.5401 57.9886 55.0542 58.1791 54.5605 58.3726C53.4601 58.8039 52.3213 59.2502 51.2694 59.766C49.7337 60.5189 48.299 61.4561 47.3013 62.8085Z" stroke="white"/>
<path d="M29.257 63H32.393L33.113 61.432H38.025L38.761 63H41.913L36.265 51H34.857L29.257 63ZM34.345 58.776L35.577 56.136L36.793 58.776H34.345Z" fill="white"/>
<path d="M68.2692 48H71.4212V43.424H75.2292V48H78.3812V36H75.2292V40.272H71.4212V36H68.2692V48Z" fill="white"/>
</svg>
