<svg width="50" height="50" viewBox="0 0 50 50" fill="none" xmlns="http://www.w3.org/2000/svg">
<path fill-rule="evenodd" clip-rule="evenodd" d="M47 25C47 37.1503 37.1503 47 25 47C12.8497 47 3 37.1503 3 25C3 12.8497 12.8497 3 25 3C37.1503 3 47 12.8497 47 25ZM50 25C50 38.8071 38.8071 50 25 50C11.1929 50 0 38.8071 0 25C0 11.1929 11.1929 0 25 0C38.8071 0 50 11.1929 50 25ZM24.9512 20.889C24.9512 23.9022 22.3824 24.0929 22.3824 24.0929C25.7685 24.0929 25.5353 28.2736 25.535 28.2736C25.535 33.4122 20.1868 33.243 20.1868 33.243H15.286H15.142H11.4258V16.4062H15.142H15.286H20.1868C22.8494 16.4062 24.9512 17.8761 24.9512 20.889ZM19.5562 19.399H15.286V23.1561H19.8833C20.6773 23.1561 21.3781 22.9022 21.3781 21.1506C21.3781 19.399 20.187 19.399 20.187 19.399H19.5562ZM15.286 30.2511H19.9609C20.6637 30.2315 21.9618 30.0108 21.9618 28.0637C21.9618 25.7286 20.1868 25.7513 20.1868 25.7513H15.286V30.2511ZM29.046 17.3981H35.9928V19.4716H29.046V17.3981ZM32.668 20.6903C26.1933 20.6903 26.199 27.1587 26.199 27.1587C26.199 27.1587 25.7552 33.5951 32.6683 33.5951C32.6683 33.5951 38.4297 33.9244 38.4297 29.1175H35.4666C35.4666 29.1175 35.5655 30.9285 32.7672 30.9285C32.7672 30.9285 29.8044 31.1266 29.8044 27.9984H38.5283C38.5283 27.9984 39.4827 20.6903 32.668 20.6903ZM35.3017 25.7512H29.771C29.771 25.7512 30.1329 23.156 32.7337 23.156C35.3349 23.1557 35.3017 25.7512 35.3017 25.7512Z" fill="#8FCBD3"/>
</svg>
