<svg xmlns="http://www.w3.org/2000/svg" width="575" height="540" fill="none"><path d="M439.804 427.34c-25.943 35.154-54.412 62.913-88.082 81.9-33.66 18.97-72.596 29.208-119.547 29.208-78.55 0-132.7-30.404-157.93-78.62-25.247-48.267-21.737-114.84 16.08-187.65 10.512-20.24 6.82-43.18-3.262-66.716-9.908-23.126-26.134-47.16-41.746-70.286l-.84-1.245C28.552 110.332 13.432 87.77 6.092 67.858 2.43 57.92.755 48.77 1.813 40.57c1.05-8.15 4.814-15.473 12.242-21.796C26.152 8.475 45.005 3.372 67.82 1.935 90.6.5 117.065 2.73 144.168 6.87c50.185 7.665 102.3 21.836 136.677 31.184l7.9 2.148 56.872 14.69 24 6.09c19.544 5.13 32.6 9.298 42.676 15.115 10.008 5.777 17.153 13.228 24.74 25.094 6.896 10.786 14.103 25.13 24.134 45.093l3.272 6.51c4.934 9.804 14.28 22.645 25.418 37.017l15 19.08 21.615 27.62c12.426 16.265 24.206 32.716 32.875 47.958 8.697 15.292 14.135 29.153 14.135 40.29 0 15.42-5.975 26.474-15.52 35.2-9.615 8.778-22.863 15.194-37.408 21.184l-13.853 5.518c-10.32 4.043-20.85 8.168-30.652 12.973-14.294 7.006-27.296 15.566-36.263 27.716z" fill="#fff" stroke="#fff" stroke-width="3"/></svg>