<svg width="50" height="50" viewBox="0 0 50 50" fill="none" xmlns="http://www.w3.org/2000/svg">
<path d="M34.1042 48.2631C34.1459 48.2506 34.1855 48.234 34.2272 48.2194C59.7 38.1106 52.6536 0 25.0245 0C11.1588 0 0 11.2899 0 24.996C0 42.3411 17.588 54.7183 34.1042 48.2631ZM11.0129 41.7829C12.7896 38.8 18.539 30.3847 28.3527 27.481C30.4047 32.7073 31.8436 38.8042 31.9854 45.7177C24.549 48.2152 16.7059 46.5342 11.0129 41.7829ZM35.0614 44.4137C34.7882 37.771 33.4306 31.8803 31.4954 26.777C35.8371 26.1 40.8629 26.552 46.5622 28.8329C45.3506 35.6256 41.0026 41.3351 35.0614 44.4137ZM46.8896 25.6022C40.6126 23.2463 35.0801 22.9526 30.2921 23.8649C29.5518 22.1985 28.774 20.5967 27.9502 19.1219C35.297 16.1912 39.6388 12.6188 41.5823 10.7275C45.0128 14.6935 47.0502 19.8281 46.8896 25.6022ZM39.3614 8.50281C37.593 10.1838 33.4285 13.5791 26.307 16.3557C22.8161 10.8399 19.0832 6.94889 16.7184 4.77007C24.2842 1.65807 33.0094 2.98702 39.3614 8.50281ZM13.728 6.29691C15.5131 7.86541 19.4315 11.6315 23.2123 17.4555C18.0197 19.1261 11.5092 20.353 3.59101 20.5259C4.85058 14.4977 8.61259 9.39017 13.728 6.29691ZM3.19479 23.6629C12.0576 23.5192 19.2313 22.1215 24.9014 20.2301C25.6855 21.6028 26.43 23.0984 27.1453 24.6523C17.2711 27.7935 11.1004 35.9026 8.73771 39.5645C4.92565 35.3152 2.82359 29.7702 3.19479 23.6629Z" fill="#8FCBD3"/>
</svg>
