<svg width="492" height="462" viewBox="0 0 492 462" fill="none" xmlns="http://www.w3.org/2000/svg">
<path d="M376.145 365.527C353.959 395.59 329.622 419.318 300.845 435.536C272.08 451.748 238.802 460.5 198.661 460.5C131.505 460.5 85.2517 434.51 63.7195 393.345C42.1603 352.128 45.1403 295.243 77.4785 232.983C86.5182 215.579 83.3317 195.872 74.6943 175.712C66.2086 155.905 52.3145 135.325 38.9613 115.545C38.7192 115.187 38.4774 114.829 38.2357 114.471C24.6048 94.2777 11.6857 74.9963 5.41599 57.9882C2.28794 49.5026 0.866826 41.7111 1.766 34.7412C2.65862 27.8223 5.85005 21.6055 12.1666 16.2283C22.4639 7.46241 38.5374 3.10053 58.044 1.87188C77.5056 0.646058 100.141 2.55231 123.325 6.09316C166.253 12.6495 210.834 24.7721 240.25 32.7707C242.606 33.4114 244.864 34.0256 247.017 34.6084C266.306 39.83 282.312 43.8345 295.69 47.1815C303.353 49.0989 310.154 50.8004 316.216 52.3914C332.94 56.7808 344.085 60.3412 352.679 65.3024C361.204 70.2238 367.295 76.5708 373.773 86.7032C379.667 95.9226 385.828 108.185 394.414 125.272C395.319 127.073 396.25 128.927 397.212 130.837C401.444 139.248 409.454 150.251 418.983 162.546C423.045 167.788 427.376 173.256 431.831 178.878C437.891 186.528 444.178 194.465 450.32 202.504C460.951 216.419 471.023 230.486 478.433 243.515C485.872 256.594 490.5 268.413 490.5 277.881C490.5 291.01 485.418 300.411 477.29 307.832C469.094 315.316 457.79 320.794 445.346 325.918C441.49 327.506 437.518 329.062 433.507 330.634C424.672 334.095 415.649 337.63 407.252 341.746C395.009 347.746 383.847 355.09 376.145 365.527Z" fill="white" stroke="white" stroke-width="3"/>
</svg>
