<svg width="50" height="50" viewBox="0 0 50 50" fill="none" xmlns="http://www.w3.org/2000/svg">
<path fill-rule="evenodd" clip-rule="evenodd" d="M47 25C47 37.1503 37.1503 47 25 47C12.8497 47 3 37.1503 3 25C3 12.8497 12.8497 3 25 3C37.1503 3 47 12.8497 47 25ZM50 25C50 38.8071 38.8071 50 25 50C11.1929 50 0 38.8071 0 25C0 11.1929 11.1929 0 25 0C38.8071 0 50 11.1929 50 25ZM13.6652 19.2969H18.6376V34.2291H13.6652V19.2969ZM34.9566 20.6606C33.9121 19.5204 32.5306 18.9502 30.8129 18.9502C30.1801 18.9502 29.6048 19.028 29.0874 19.1838C28.5702 19.3395 28.1333 19.558 27.7765 19.8393C27.42 20.1206 27.1361 20.3817 26.9253 20.6227C26.7249 20.8516 26.5289 21.1182 26.3376 21.4198V19.2965H21.38L21.3952 20.0199C21.4054 20.5022 21.4104 21.9888 21.4104 24.4799C21.4104 26.9713 21.4004 30.2208 21.3802 34.229H26.3376V25.8962C26.3376 25.384 26.3925 24.9772 26.5033 24.6756C26.7144 24.1631 27.033 23.7339 27.4601 23.3875C27.8873 23.0407 28.417 22.8674 29.05 22.8674C29.9137 22.8674 30.5493 23.1662 30.9562 23.7639C31.3629 24.3616 31.5663 25.1878 31.5663 26.2426V34.2285H36.5237V25.6704C36.5233 23.4703 36.0014 21.8004 34.9566 20.6606ZM14.1549 12.8402C14.6724 12.3532 15.3478 12.1094 16.1815 12.1094C17.0152 12.1094 17.6835 12.3529 18.1855 12.8402C18.6877 13.3274 18.944 13.9425 18.954 14.686C18.964 15.4193 18.7104 16.0321 18.1931 16.5242C17.6759 17.0165 16.9952 17.2625 16.1513 17.2625H16.1212C15.2975 17.2625 14.6344 17.0163 14.1323 16.5242C13.63 16.0321 13.3789 15.4191 13.3789 14.686C13.3789 13.9425 13.6375 13.3274 14.1549 12.8402Z" fill="#8FCBD3"/>
</svg>
